PathFileType	4	(X/Y/Z)	C:\Users\chris\Documents\GitHub\baseballds\vids\pitch4_Sports2D\pitch4_Sports2D_px_person00.trc
DataRate	CameraRate	NumFrames	NumMarkers	Units	OrigDataRate	OrigDataStartFrame	OrigNumFrames
30	30	12	22	m	30	148	238
Frame#	Time	Hip			RHip			RKnee			RAnkle			RBigToe			RSmallToe			RHeel			LHip			LKnee			LAnkle			LBigToe			LSmallToe			LHeel			Neck			Head			Nose			RShoulder			RElbow			RWrist			LShoulder			LElbow			LWrist		
		X1	Y1	Z1	X2	Y2	Z2	X3	Y3	Z3	X4	Y4	Z4	X5	Y5	Z5	X6	Y6	Z6	X7	Y7	Z7	X8	Y8	Z8	X9	Y9	Z9	X10	Y10	Z10	X11	Y11	Z11	X12	Y12	Z12	X13	Y13	Z13	X14	Y14	Z14	X15	Y15	Z15	X16	Y16	Z16	X17	Y17	Z17	X18	Y18	Z18	X19	Y19	Z19	X20	Y20	Z20	X21	Y21	Z21	X22	Y22	Z22
148	4.933333333333334	258.6364440936118	1098.0335772501355	0.0	239.86730503162326	1116.3245977960441	0.0	327.9484066855652	1418.2243024524066	0.0	273.44261463218413	1725.8846176944817	0.0	421.6212905766039	1779.3647358476721	0.0	390.5769556249791	1793.5995360081731	0.0	241.32110953797974	1766.9039435409204	0.0	297.27017074818764	1110.4766682727277	0.0	336.6495761543028	1399.327251871966	0.0	308.4791241748546	1636.2730885786516	0.0	435.97106592483635	1691.66774201561	0.0	417.59958852018605	1668.0626522223288	0.0	276.1118352190554	1670.7116084918644	0.0	315.8531865707345	670.3686864426766	0.0	410.4267562135415	530.1995494994535	0.0	428.88718860807813	656.7901518245187	0.0	262.4600554325424	730.0487695864131	0.0	251.51513578973896	960.6381226429085	0.0	433.7949675715357	960.0547185838664	0.0	330.1645595958772	733.3748446914644	0.0	317.4606491797252	938.5368517256738	0.0	440.5897864176415	963.0397275057555	0.0
149	4.966666666666667	259.3163072620222	1098.9042524751706	0.0	241.28697619751534	1116.896900872111	0.0	327.8959020975277	1419.555419389374	0.0	273.63038855732856	1727.203832782075	0.0	423.3074594533885	1783.2938869570517	0.0	391.8773606261273	1796.9927760662085	0.0	241.03279488913856	1766.7649065144865	0.0	297.9415011673424	1110.2177557310665	0.0	337.4560355806037	1399.912271709999	0.0	309.7198787903762	1638.2771939604258	0.0	437.9916819056765	1694.4288465579002	0.0	419.0143969719462	1670.0962710444778	0.0	277.2688575811464	1671.8712695376487	0.0	317.84496289029266	669.3590919850701	0.0	408.63059823253	526.979184820891	0.0	429.3669521602074	652.9130047417511	0.0	265.53398105326033	730.5737285531566	0.0	253.30578133834257	960.2185635775639	0.0	434.52669606636965	959.8874579490158	0.0	329.6448287858088	732.7306584241448	0.0	316.3315783751035	937.057622478339	0.0	438.7985599084878	964.8916503147791	0.0
150	5.0	260.3999859150984	1100.095773643366	0.0	243.06112070381533	1116.290343184904	0.0	327.450795332213	1420.0794312811952	0.0	272.7601240911925	1730.0981709088167	0.0	424.9332378773352	1787.6882322478807	0.0	391.5131086859272	1801.0167056466785	0.0	240.73430344986866	1767.526759148252	0.0	298.9483604942841	1108.835068072986	0.0	336.6691461214741	1400.182517622505	0.0	310.4095693074952	1640.7673350549653	0.0	438.67175390027097	1695.4506134038875	0.0	419.5508427708146	1671.8426771408429	0.0	276.7469193722468	1674.1778652156943	0.0	319.8641635180122	668.4267574935037	0.0	403.6933550340432	521.1326803779727	0.0	430.9150847056894	645.9533615677474	0.0	267.1935343954287	730.2703236082567	0.0	255.32008301389362	960.2074090665892	0.0	436.35789806157663	960.0643163792948	0.0	329.7243915320132	732.9803373289387	0.0	316.8271722309626	936.1956536327853	0.0	437.7457739726767	968.2772594665249	0.0
151	5.033333333333333	260.2533025068194	1099.869891490755	0.0	244.60745887320724	1113.9157763906528	0.0	327.8175032221268	1418.7816896350187	0.0	271.9108924931425	1731.6373219705124	0.0	425.6658497158428	1787.7187214241974	0.0	391.12018956279974	1801.8522662653959	0.0	240.83634654983896	1768.449579413798	0.0	298.63616599439257	1106.320544624405	0.0	334.5920885137255	1399.1976883046925	0.0	310.46522370303205	1640.7095597235934	0.0	437.6815143768886	1693.940966560967	0.0	419.0301696010848	1670.8969362346213	0.0	276.50832457902635	1675.1946706553113	0.0	321.5930922727743	667.8698157940222	0.0	396.770515483916	514.0443792589348	0.0	433.7824178275651	636.5755835205554	0.0	268.70430183933644	729.2259125112615	0.0	257.5981679813398	960.9038312528508	0.0	439.78405761263787	959.783584129986	0.0	331.6008992908902	734.43548117521	0.0	318.9354809587567	936.8814265907122	0.0	439.0116108639927	970.5711700238616	0.0
152	5.066666666666666	259.3439891160448	1098.719861386779	0.0	246.13277213065882	1112.046629686051	0.0	328.58528647088923	1417.116720703365	0.0	271.81096635798053	1731.6052370636528	0.0	425.1808231832567	1786.4819494798414	0.0	391.4051597332654	1801.2817526127	0.0	241.08970598667744	1769.283234164348	0.0	297.8160753181177	1104.5504596704072	0.0	333.5154496962025	1398.8218216411783	0.0	309.8544682517306	1641.0608963223492	0.0	437.1694662798848	1694.5850328724732	0.0	418.7874210175707	1670.9239703597873	0.0	277.11938556034414	1676.7238259831997	0.0	323.0945182333582	667.150156782153	0.0	390.07845715623546	507.1768305444175	0.0	436.2456615636528	626.9180802259357	0.0	270.69218222113324	728.1005843166508	0.0	259.5195216454578	961.7482391103913	0.0	442.07810193632884	960.2625810333343	0.0	333.3934565585742	734.9318243182133	0.0	321.79266559417886	937.5571578457517	0.0	441.38372854074566	970.1623141478377	0.0
153	5.1	259.56414994588295	1098.9821361590068	0.0	247.93770247361562	1112.2847883060508	0.0	328.9972282803651	1416.8736170037077	0.0	272.1493020720696	1732.1180433350373	0.0	423.56093166227254	1787.787343384188	0.0	391.50784284858804	1801.5957012420697	0.0	241.0559922579945	1770.3040165285486	0.0	298.3620042812846	1104.592653048391	0.0	335.04389314238847	1400.2899774169948	0.0	308.62785789421036	1644.5215393876927	0.0	438.5763299879635	1698.610088638041	0.0	419.32440603085007	1674.4148589265067	0.0	276.7246032393911	1680.2056560513636	0.0	324.1071679136518	666.1301005553214	0.0	384.9906052049356	501.4595151033648	0.0	436.4326116660719	619.2770535473505	0.0	273.39661137390516	727.0558226973942	0.0	260.9508695430871	962.090509576904	0.0	441.82275271861295	961.3594858398557	0.0	333.13371525405904	732.9221729124092	0.0	323.26426866225535	936.2324500031141	0.0	442.8624663950098	966.2404766255743	0.0
154	5.133333333333333	260.8526081586589	1100.3941117440029	0.0	249.51140129358777	1113.330333783141	0.0	329.6925309250129	1418.1395459060122	0.0	272.4217234094621	1733.318428153167	0.0	422.7276172457534	1787.9751801963175	0.0	392.2613426353583	1800.6857876497604	0.0	240.84178674959543	1771.7612471620046	0.0	299.1070378872716	1105.4411670382265	0.0	337.74171856932736	1401.584282455326	0.0	307.5769361081577	1647.731161672704	0.0	440.0975253248221	1700.9303056235722	0.0	419.4182312899066	1677.1435715082714	0.0	275.35722307960134	1682.7445880283867	0.0	324.4716133721127	665.2202929532735	0.0	381.57564098370926	497.09336692161094	0.0	434.77671559634445	613.8207144034284	0.0	276.88221463033386	726.4033017762233	0.0	263.0470738456649	962.625699132496	0.0	441.5785878683803	961.3871962736257	0.0	331.9928603234036	730.1027652977341	0.0	322.30014966731846	933.9108936436571	0.0	443.260718829287	961.0597320385018	0.0
155	5.166666666666667	261.9888511182777	1100.7382525770054	0.0	250.58192835125695	1113.905957657372	0.0	330.9406673334828	1420.2397829640772	0.0	272.83567389113193	1732.9897976535958	0.0	424.84756429848574	1783.9280432500948	0.0	395.0937872148136	1797.4247094504296	0.0	241.11093059818808	1772.6753927322723	0.0	298.3250745543318	1106.4677805856923	0.0	340.1074325694649	1401.0956740882077	0.0	308.06418538539526	1646.652716526163	0.0	440.1353394735727	1698.7399455859322	0.0	419.11047234267875	1675.5349225797704	0.0	276.0589567869497	1681.5821194390949	0.0	324.4747488808867	664.8808532649897	0.0	379.2269207890113	494.4956511894072	0.0	433.0993452906	610.146727746813	0.0	280.4380078949779	727.1282961151398	0.0	266.6388766519241	964.5881511041073	0.0	444.5717571713142	959.8656859485809	0.0	331.06723191736035	729.187886156715	0.0	320.0537529285946	933.1230103581479	0.0	443.9280197208067	958.1319004987445	0.0
156	5.2	263.3715970652477	1099.806398450578	0.0	251.90894737984837	1114.2612300586534	0.0	331.6213659202941	1421.9013101318853	0.0	273.82409615263975	1730.7118449793202	0.0	428.4864373892342	1781.4591957937214	0.0	398.2221279814339	1796.4405634884815	0.0	242.1394097764632	1771.706244953597	0.0	297.9677110826161	1107.7866784070354	0.0	341.9115763980097	1400.1103394890322	0.0	310.12870882754675	1643.558467938415	0.0	440.2163182422097	1696.836897422881	0.0	420.3878172840019	1673.317108300145	0.0	279.3847792934538	1678.861798145253	0.0	324.25968631274657	664.8125640722864	0.0	376.9974305301907	494.2058447624699	0.0	432.284081745075	608.0473969777196	0.0	282.5647583477414	729.5237350313741	0.0	270.8569363013764	967.4866308339012	0.0	450.4318946453669	957.9019480242953	0.0	330.259576043754	730.2067867099881	0.0	319.27914504900616	933.1002224964886	0.0	445.58590430078084	957.2711555046932	0.0
157	5.233333333333333	265.63705067165665	1099.0335835518636	0.0	253.97657859053558	1114.4070473460538	0.0	331.25665596007946	1421.4564676046655	0.0	274.8552266416998	1729.28173531004	0.0	429.41771291610576	1785.496928343382	0.0	397.7816485877469	1800.3669204665732	0.0	243.1303376207911	1769.9249074304978	0.0	300.48794080024794	1108.3303364263406	0.0	343.1812214732731	1399.7430441716544	0.0	312.5225618401613	1642.5714286132343	0.0	441.2924448844817	1699.357548406063	0.0	422.93169665782096	1674.6309902450491	0.0	282.2461581763633	1677.5969163694392	0.0	324.00833374114126	664.2365263535048	0.0	374.28278522360154	495.4639356190107	0.0	431.9172171522796	606.6144045281279	0.0	282.48199875328777	732.5096591046986	0.0	274.20989372384264	969.2215279307012	0.0	455.50123692802015	956.6185862212213	0.0	330.6954155405388	731.1330458640577	0.0	321.8741394852323	931.5647741863098	0.0	446.8692149712412	956.96536989745	0.0
158	5.266666666666667	267.76517833557574	1098.7867578357684	0.0	256.2382530296718	1114.5374647269234	0.0	331.24233198225113	1419.5734725884336	0.0	275.071377199505	1730.2702758913942	0.0	426.2641228076847	1790.1028647619903	0.0	393.1728572512885	1803.6088563172038	0.0	243.47687417033112	1769.8689712096677	0.0	304.15964129974543	1107.8285077422745	0.0	344.28431234263746	1399.4591770935706	0.0	314.4212234352453	1642.7016085132834	0.0	441.46521324776865	1702.185799312341	0.0	423.6334985089519	1676.3028786738612	0.0	283.0419467829605	1677.1944152033007	0.0	324.1537957833653	663.140038680918	0.0	371.72271731458807	495.6377279112512	0.0	431.1649656863292	605.1924444054166	0.0	281.7231327450378	734.6503600634567	0.0	276.2053368081643	968.8636734759787	0.0	457.2251865699385	955.721031212459	0.0	332.51899299025706	731.0146366888805	0.0	325.26412546742847	929.8593497512148	0.0	445.99006176825867	956.9333445237338	0.0
159	5.3	268.7436836373672	1098.2951191970724	0.0	257.9995668547719	1115.5110496346279	0.0	333.0155781339296	1418.790844925949	0.0	274.6526841100953	1731.2909576867726	0.0	422.68568112511286	1788.6020142532993	0.0	388.9755218114623	1801.6119686495258	0.0	243.61705793864812	1771.4571770850148	0.0	305.5373140591073	1108.00436618895	0.0	345.18669801036043	1399.2796874333108	0.0	315.23834626811754	1642.0598793168106	0.0	440.23923173222926	1701.4605787029964	0.0	421.99303006840626	1675.032053976864	0.0	282.69837126077124	1676.870823557543	0.0	324.41036088147933	662.011133432542	0.0	370.4057837431889	492.91710157859546	0.0	429.9292421983424	603.7735856012572	0.0	282.3863319444549	735.0390437420875	0.0	277.5639700803576	967.736936278225	0.0	457.173250020236	953.5447839195747	0.0	333.1013023519283	730.2262575633616	0.0	325.6388438444897	930.5876465004175	0.0	443.89068210584423	955.8411287566761	0.0
